<svg xmlns="http://www.w3.org/2000/svg" width="480" height="480" viewBox="0 0 480 480" version="1.1"><path d="" stroke="none" fill="#08546c" fill-rule="evenodd"/><path d="M 19.821 6.329 C 2.975 11.103, -3.881 30.611, 4.969 48.588 C 6.748 52.202, 14.449 63.445, 22.082 73.573 C 37.028 93.405, 40.008 98.392, 42.394 107.571 C 44.320 114.983, 53.087 139.678, 57.544 150.245 C 62.786 162.674, 70.963 176.706, 76.731 183.170 C 79.629 186.418, 82 189.531, 82 190.087 C 82 190.644, 81.373 192.314, 80.608 193.800 C 78.138 198.589, 70.059 233.177, 68.881 244 C 65.212 277.724, 74.567 315.774, 91.084 334.305 C 99.478 343.723, 107.608 347.260, 115.795 345.055 C 124.915 342.599, 129.209 336.104, 131.489 321.313 C 133.837 306.082, 135.113 298.635, 135.656 297 C 135.940 296.144, 139.446 301.965, 143.827 310.568 C 148.047 318.856, 153.055 327.631, 154.955 330.068 C 160.630 337.346, 175.978 352.791, 184 359.297 C 188.125 362.642, 195.378 369.077, 200.118 373.596 C 208.406 381.498, 214.539 385.794, 215.771 384.562 C 216.093 384.240, 214.814 382.765, 212.928 381.284 C 192.300 365.082, 157.910 311.238, 142.171 270.500 C 137.216 257.674, 136.635 256.500, 135.238 256.500 C 133.804 256.500, 122.744 270.549, 120.163 275.648 C 116.732 282.426, 114.114 293.514, 111.940 310.470 C 110.814 319.254, 109.665 326.668, 109.387 326.946 C 109.109 327.225, 107.220 326.563, 105.191 325.476 C 95.628 320.354, 86.443 296.749, 83.948 270.886 C 81.957 250.239, 84.594 229.096, 91.378 211.319 C 93.233 206.459, 95.531 199.269, 96.486 195.342 C 98.711 186.185, 97.647 182.593, 90.465 175.012 C 79.639 163.585, 73.933 152.262, 64.402 123.287 C 53.789 91.024, 50.250 84.166, 31.934 60.380 C 18.334 42.718, 14.896 35.466, 17.109 29.116 C 19.208 23.097, 26.337 21.500, 36.093 24.864 C 53.014 30.698, 71.458 40.696, 81.845 49.664 C 86.679 53.838, 88.102 54.131, 112.038 55.881 C 121.308 56.558, 126.653 57.513, 132.538 59.542 C 193.321 80.494, 257.130 142.966, 282.468 206.329 C 285.365 213.573, 291.784 228.050, 296.733 238.500 C 301.681 248.950, 307.195 260.875, 308.984 265 C 314.260 277.159, 324.726 297.132, 328.495 302.231 C 332.592 307.774, 337.587 310.552, 351 314.749 C 365.420 319.260, 379.876 324.816, 386 328.200 C 389.025 329.872, 399.150 336.510, 408.500 342.952 C 417.850 349.394, 428.088 356.360, 431.252 358.431 C 434.416 360.503, 437.887 363.438, 438.967 364.953 L 440.929 367.709 424.215 368.307 C 405.494 368.976, 395.209 370.810, 379.347 376.307 C 363.271 381.878, 363.299 381.846, 367.128 390.623 C 375.038 408.753, 394.385 424.978, 427.027 440.856 C 445.410 449.798, 462.726 461.042, 473.936 471.318 C 476.376 473.554, 478.539 474.883, 478.743 474.271 C 479.503 471.992, 473.552 462.373, 467.467 456.042 C 464.008 452.444, 457.425 445.501, 452.839 440.613 C 441.858 428.910, 433.193 422.085, 417.207 412.547 C 404.500 404.966, 396.424 398.529, 394.048 394.089 C 393.169 392.448, 393.205 391.886, 394.207 391.595 C 402.700 389.128, 423.978 384.709, 433.265 383.481 C 439.735 382.626, 448.854 380.818, 453.530 379.463 C 458.205 378.109, 462.248 377, 462.515 377 C 466.279 377, 453.032 359.742, 441.709 349.895 C 430.849 340.450, 408.583 323.808, 397.174 316.610 C 388.682 311.252, 366.555 300.558, 354.210 295.846 C 351.300 294.735, 347.795 292.628, 346.420 291.163 C 341.862 286.308, 314.600 229.383, 300.846 196 C 283.899 154.871, 247.564 109.929, 206.500 79.307 C 187.573 65.193, 164.692 51.011, 153.859 46.679 C 142.390 42.093, 124.201 38.188, 110.779 37.431 C 104.025 37.050, 97.600 36.277, 96.500 35.714 C 95.400 35.151, 92.250 32.778, 89.500 30.441 C 69.783 13.685, 35.601 1.857, 19.821 6.329 M 105.500 85.664 C 96.621 86.742, 95.933 87.006, 96.967 88.939 C 97.510 89.953, 100.025 93.194, 102.555 96.142 C 105.085 99.089, 108.758 104.987, 110.717 109.250 C 112.676 113.513, 114.626 117, 115.050 117 C 117.630 117, 122.975 107, 122.994 102.135 C 123.007 99.160, 117.636 91.324, 113.480 88.250 C 111.062 86.463, 108.953 85.067, 108.792 85.150 C 108.631 85.232, 107.150 85.464, 105.500 85.664" stroke="none" fill="#04546c" fill-rule="evenodd"/></svg>